<svg width="82" height="63" viewBox="0 0 82 63" fill="none" xmlns="http://www.w3.org/2000/svg">
<g id="Cloud">
<g id="Union" filter="url(#filter0_bd_8_28)">
<mask id="path-1-outside-1_8_28" maskUnits="userSpaceOnUse" x="15.6234" y="11" width="52" height="33" fill="black">
<rect fill="white" x="15.6234" y="11" width="52" height="33"/>
<path fill-rule="evenodd" clip-rule="evenodd" d="M51.8137 26.0078C51.8137 26.4619 51.7903 26.9105 51.7448 27.3526C53.1502 26.1347 54.9858 25.3973 56.994 25.3973C61.4156 25.3973 65 28.9715 65 33.3805C65 37.7895 61.4156 41.3636 56.994 41.3636C56.9921 41.3636 56.9903 41.3636 56.9884 41.3636H25.8729C25.8702 41.3636 25.8675 41.3636 25.8648 41.3636C25.8622 41.3636 25.8595 41.3636 25.8568 41.3636H25.8177V41.3635C21.2878 41.3382 17.6234 37.6687 17.6234 33.1457C17.6234 28.6393 21.2609 24.9801 25.7678 24.9283C26.3181 18.2493 31.9286 13 38.7686 13C45.9732 13 51.8137 18.8238 51.8137 26.0078Z"/>
</mask>
<path fill-rule="evenodd" clip-rule="evenodd" d="M51.8137 26.0078C51.8137 26.4619 51.7903 26.9105 51.7448 27.3526C53.1502 26.1347 54.9858 25.3973 56.994 25.3973C61.4156 25.3973 65 28.9715 65 33.3805C65 37.7895 61.4156 41.3636 56.994 41.3636C56.9921 41.3636 56.9903 41.3636 56.9884 41.3636H25.8729C25.8702 41.3636 25.8675 41.3636 25.8648 41.3636C25.8622 41.3636 25.8595 41.3636 25.8568 41.3636H25.8177V41.3635C21.2878 41.3382 17.6234 37.6687 17.6234 33.1457C17.6234 28.6393 21.2609 24.9801 25.7678 24.9283C26.3181 18.2493 31.9286 13 38.7686 13C45.9732 13 51.8137 18.8238 51.8137 26.0078Z" fill="url(#paint0_linear_8_28)" shape-rendering="crispEdges"/>
<path d="M51.7448 27.3526L49.7553 27.1477L49.2378 32.1717L53.0546 28.864L51.7448 27.3526ZM25.8177 41.3636H23.8177V43.3636H25.8177V41.3636ZM25.8177 41.3635H27.8177V39.3746L25.8289 39.3635L25.8177 41.3635ZM25.7678 24.9283L25.7908 26.9282L27.6116 26.9072L27.7611 25.0925L25.7678 24.9283ZM53.7343 27.5575C53.7868 27.0475 53.8137 26.5305 53.8137 26.0078H49.8137C49.8137 26.3933 49.7939 26.7736 49.7553 27.1477L53.7343 27.5575ZM56.994 23.3973C54.4872 23.3973 52.1907 24.3197 50.435 25.8412L53.0546 28.864C54.1098 27.9496 55.4843 27.3973 56.994 27.3973V23.3973ZM67 33.3805C67 27.8616 62.5148 23.3973 56.994 23.3973V27.3973C60.3164 27.3973 63 30.0815 63 33.3805H67ZM56.994 43.3636C62.5148 43.3636 67 38.8994 67 33.3805H63C63 36.6795 60.3164 39.3636 56.994 39.3636V43.3636ZM56.9884 43.3636C56.9888 43.3636 56.9892 43.3636 56.9902 43.3636C56.991 43.3636 56.9925 43.3636 56.994 43.3636V39.3636C56.9937 39.3636 56.9933 39.3636 56.9922 39.3636C56.9914 39.3636 56.9899 39.3636 56.9884 39.3636V43.3636ZM56.9884 39.3636H25.8729V43.3636H56.9884V39.3636ZM25.8648 43.3636C25.867 43.3636 25.8691 43.3636 25.8703 43.3636C25.8717 43.3636 25.8724 43.3636 25.8729 43.3636V39.3636C25.8707 39.3636 25.8686 39.3636 25.8674 39.3636C25.866 39.3636 25.8653 39.3636 25.8648 39.3636V43.3636ZM25.8568 43.3636C25.8573 43.3636 25.8579 43.3636 25.8594 43.3636C25.8606 43.3636 25.8627 43.3636 25.8648 43.3636V39.3636C25.8643 39.3636 25.8637 39.3636 25.8622 39.3636C25.861 39.3636 25.859 39.3636 25.8568 39.3636V43.3636ZM25.8568 39.3636H25.8177V43.3636H25.8568V39.3636ZM27.8177 41.3636V41.3635H23.8177V41.3636H27.8177ZM15.6234 33.1457C15.6234 38.7748 20.1824 43.3321 25.8066 43.3635L25.8289 39.3635C22.3932 39.3444 19.6234 36.5625 19.6234 33.1457H15.6234ZM25.7448 22.9284C20.1489 22.9928 15.6234 27.5372 15.6234 33.1457H19.6234C19.6234 29.7415 22.3728 26.9675 25.7908 26.9282L25.7448 22.9284ZM38.7686 11C30.8838 11 24.41 17.0516 23.7746 24.7641L27.7611 25.0925C28.2262 19.4471 32.9733 15 38.7686 15V11ZM53.8137 26.0078C53.8137 17.7138 47.0724 11 38.7686 11V15C44.874 15 49.8137 19.9338 49.8137 26.0078H53.8137Z" fill="url(#paint1_linear_8_28)" mask="url(#path-1-outside-1_8_28)"/>
</g>
</g>
<defs>
<filter id="filter0_bd_8_28" x="0.623375" y="0" width="81.3766" height="62.3636" filterUnits="userSpaceOnUse" color-interpolation-filters="sRGB">
<feFlood flood-opacity="0" result="BackgroundImageFix"/>
<feGaussianBlur in="BackgroundImageFix" stdDeviation="5"/>
<feComposite in2="SourceAlpha" operator="in" result="effect1_backgroundBlur_8_28"/>
<feColorMatrix in="SourceAlpha" type="matrix" values="0 0 0 0 0 0 0 0 0 0 0 0 0 0 0 0 0 0 127 0" result="hardAlpha"/>
<feOffset dy="4"/>
<feGaussianBlur stdDeviation="7.5"/>
<feComposite in2="hardAlpha" operator="out"/>
<feColorMatrix type="matrix" values="0 0 0 0 0 0 0 0 0 0 0 0 0 0 0 0 0 0 0.1 0"/>
<feBlend mode="normal" in2="effect1_backgroundBlur_8_28" result="effect2_dropShadow_8_28"/>
<feBlend mode="normal" in="SourceGraphic" in2="effect2_dropShadow_8_28" result="shape"/>
</filter>
<linearGradient id="paint0_linear_8_28" x1="32.3485" y1="12.8817" x2="43.6884" y2="41.5042" gradientUnits="userSpaceOnUse">
<stop stop-color="white"/>
<stop offset="0.708333" stop-color="#9DDCFF" stop-opacity="0.69"/>
</linearGradient>
<linearGradient id="paint1_linear_8_28" x1="39.7751" y1="3.17808" x2="55.443" y2="52.9988" gradientUnits="userSpaceOnUse">
<stop stop-color="white"/>
<stop offset="0.713542" stop-color="#85C6EC" stop-opacity="0.71"/>
</linearGradient>
</defs>
</svg>
