<svg width="38" height="20" viewBox="0 0 38 20" fill="none" xmlns="http://www.w3.org/2000/svg">
<g id="Rain">
<g id="Group 14">
<rect id="Rectangle 5" x="2.70825" y="11.3749" width="2.81159" height="7.80997" rx="1.40579" transform="rotate(15 2.70825 11.3749)" fill="url(#paint0_linear_19_104)"/>
<rect id="Rectangle 6" x="11.819" y="11.3749" width="2.81159" height="7.80997" rx="1.40579" transform="rotate(15 11.819 11.3749)" fill="url(#paint1_linear_19_104)"/>
<rect id="Rectangle 7" x="20.9297" y="11.3749" width="2.81159" height="7.80997" rx="1.40579" transform="rotate(15 20.9297 11.3749)" fill="url(#paint2_linear_19_104)"/>
<rect id="Rectangle 8" x="30.0405" y="11.3749" width="2.81159" height="7.80997" rx="1.40579" transform="rotate(15 30.0405 11.3749)" fill="url(#paint3_linear_19_104)"/>
</g>
<g id="Group 15">
<rect id="Rectangle 17" x="7.7066" y="0.12851" width="2.81159" height="7.80997" rx="1.40579" transform="rotate(15 7.7066 0.12851)" fill="url(#paint4_linear_19_104)"/>
<rect id="Rectangle 18" x="16.8174" y="0.12851" width="2.81159" height="7.80997" rx="1.40579" transform="rotate(15 16.8174 0.12851)" fill="url(#paint5_linear_19_104)"/>
<rect id="Rectangle 19" x="25.9281" y="0.12851" width="2.81159" height="7.80997" rx="1.40579" transform="rotate(15 25.9281 0.12851)" fill="url(#paint6_linear_19_104)"/>
<rect id="Rectangle 20" x="35.0388" y="0.12851" width="2.81159" height="7.80997" rx="1.40579" transform="rotate(15 35.0388 0.12851)" fill="url(#paint7_linear_19_104)"/>
</g>
</g>
<defs>
<linearGradient id="paint0_linear_19_104" x1="3.02065" y1="18.2477" x2="5.51984" y2="12.3121" gradientUnits="userSpaceOnUse">
<stop stop-color="#3981EE"/>
<stop offset="1" stop-color="#92BDFF"/>
</linearGradient>
<linearGradient id="paint1_linear_19_104" x1="12.1314" y1="18.2477" x2="14.6306" y2="12.3121" gradientUnits="userSpaceOnUse">
<stop stop-color="#3981EE"/>
<stop offset="1" stop-color="#92BDFF"/>
</linearGradient>
<linearGradient id="paint2_linear_19_104" x1="21.2421" y1="18.2477" x2="23.7413" y2="12.3121" gradientUnits="userSpaceOnUse">
<stop stop-color="#3981EE"/>
<stop offset="1" stop-color="#92BDFF"/>
</linearGradient>
<linearGradient id="paint3_linear_19_104" x1="30.3529" y1="18.2477" x2="32.8521" y2="12.3121" gradientUnits="userSpaceOnUse">
<stop stop-color="#3981EE"/>
<stop offset="1" stop-color="#92BDFF"/>
</linearGradient>
<linearGradient id="paint4_linear_19_104" x1="8.019" y1="7.00128" x2="10.5182" y2="1.06571" gradientUnits="userSpaceOnUse">
<stop stop-color="#3981EE"/>
<stop offset="1" stop-color="#92BDFF"/>
</linearGradient>
<linearGradient id="paint5_linear_19_104" x1="17.1298" y1="7.00128" x2="19.629" y2="1.06571" gradientUnits="userSpaceOnUse">
<stop stop-color="#3981EE"/>
<stop offset="1" stop-color="#92BDFF"/>
</linearGradient>
<linearGradient id="paint6_linear_19_104" x1="26.2405" y1="7.00128" x2="28.7397" y2="1.06571" gradientUnits="userSpaceOnUse">
<stop stop-color="#3981EE"/>
<stop offset="1" stop-color="#92BDFF"/>
</linearGradient>
<linearGradient id="paint7_linear_19_104" x1="35.3512" y1="7.00128" x2="37.8504" y2="1.06571" gradientUnits="userSpaceOnUse">
<stop stop-color="#3981EE"/>
<stop offset="1" stop-color="#92BDFF"/>
</linearGradient>
</defs>
</svg>
