<svg width="13" height="13" viewBox="0 0 13 13" fill="none" xmlns="http://www.w3.org/2000/svg">
<g id="Snow">
<path id="Union" fill-rule="evenodd" clip-rule="evenodd" d="M6.45979 0.342865C6.60263 0.342865 6.71843 0.458664 6.71843 0.601509V1.41276L7.30862 0.667355C7.39729 0.555364 7.55996 0.536459 7.67195 0.625131C7.78394 0.713802 7.80285 0.876471 7.71418 0.988461L6.71843 2.24608V2.72117L7.30862 1.97578C7.39729 1.86378 7.55996 1.84488 7.67195 1.93355C7.78394 2.02222 7.80284 2.18489 7.71417 2.29688L6.71843 3.55449V5.78798L8.37368 4.13273L8.55885 2.5394C8.57534 2.39752 8.70373 2.29586 8.84562 2.31235C8.98751 2.32884 9.08917 2.45723 9.07268 2.59912L8.96293 3.54349L9.29889 3.20752L9.48406 1.6142C9.50055 1.47231 9.62894 1.37065 9.77083 1.38714C9.91272 1.40363 10.0144 1.53203 9.99789 1.67392L9.88814 2.61827L10.3858 2.12059C10.4868 2.01959 10.6506 2.01959 10.7516 2.12059C10.8526 2.2216 10.8526 2.38537 10.7516 2.48637L10.2419 2.99604L11.2078 2.8838C11.3496 2.86731 11.478 2.96896 11.4945 3.11085C11.511 3.25274 11.4094 3.38113 11.2675 3.39762L9.65268 3.58528L9.31672 3.92124L10.2825 3.809C10.4244 3.79251 10.5528 3.89417 10.5693 4.03606C10.5858 4.17795 10.4841 4.30634 10.3423 4.32283L8.72748 4.51049L7.07472 6.16324H9.43455L10.6922 5.16751C10.8041 5.07884 10.9668 5.09774 11.0555 5.20973C11.1442 5.32173 11.1253 5.48439 11.0133 5.57307L10.2679 6.16324H10.743L12.0006 5.16751C12.1126 5.07884 12.2753 5.09774 12.3639 5.20973C12.4526 5.32173 12.4337 5.48439 12.3217 5.57307L11.5763 6.16324H12.2802C12.423 6.16324 12.5388 6.27904 12.5388 6.42189C12.5388 6.56473 12.423 6.68053 12.2802 6.68053H11.5594L12.3217 7.28409C12.4337 7.37276 12.4526 7.53543 12.3639 7.64742C12.2753 7.75941 12.1126 7.77831 12.0006 7.68964L10.7261 6.68053H10.251L11.0133 7.28409C11.1253 7.37276 11.1442 7.53543 11.0555 7.64742C10.9668 7.75941 10.8041 7.77831 10.6922 7.68964L9.41765 6.68053H7.08031L8.74894 8.34916L10.3423 8.53433C10.4842 8.55082 10.5858 8.67922 10.5694 8.82111C10.5529 8.96299 10.4245 9.06465 10.2826 9.04816L9.33819 8.93841L9.67414 9.27437L11.2675 9.45954C11.4094 9.47603 11.5111 9.60442 11.4946 9.74631C11.4781 9.8882 11.3497 9.98985 11.2078 9.97337L10.2634 9.86361L10.7611 10.3613C10.8621 10.4623 10.8621 10.6261 10.7611 10.7271C10.6601 10.8281 10.4963 10.8281 10.3953 10.7271L9.88566 10.2174L9.9979 11.1832C10.0144 11.3251 9.91273 11.4535 9.77084 11.47C9.62896 11.4865 9.50056 11.3849 9.48407 11.243L9.29642 9.62819L8.96045 9.29222L9.07269 10.258C9.08918 10.3999 8.98752 10.5283 8.84563 10.5448C8.70374 10.5613 8.57535 10.4596 8.55886 10.3178L8.3712 8.70298L6.71843 7.05021V9.41003L7.71417 10.6676C7.80284 10.7796 7.78394 10.9423 7.67195 11.031C7.55996 11.1196 7.39729 11.1007 7.30862 10.9887L6.71843 10.2433V10.7184L7.71417 11.9761C7.80284 12.088 7.78394 12.2507 7.67195 12.3394C7.55996 12.4281 7.39729 12.4091 7.30862 12.2972L6.71843 11.5518V12.2557C6.71843 12.3985 6.60263 12.5143 6.45979 12.5143C6.31695 12.5143 6.20115 12.3985 6.20115 12.2556V11.5349L5.59759 12.2972C5.50892 12.4091 5.34625 12.4281 5.23426 12.3394C5.12227 12.2507 5.10337 12.088 5.19204 11.9761L6.20115 10.7016V10.2265L5.59759 10.9887C5.50892 11.1007 5.34625 11.1196 5.23426 11.031C5.12227 10.9423 5.10337 10.7796 5.19204 10.6676L6.20115 9.39314V7.03682L4.61091 8.62706L4.42325 10.2418C4.40676 10.3837 4.27837 10.4854 4.13648 10.4689C3.99459 10.4524 3.89293 10.324 3.90942 10.1821L4.02166 9.21631L3.68571 9.55226L3.49805 11.167C3.48156 11.3089 3.35317 11.4106 3.21128 11.3941C3.06939 11.3776 2.96773 11.2492 2.98422 11.1073L3.09646 10.1415L2.51087 10.7271C2.40986 10.8281 2.2461 10.8281 2.14509 10.7271C2.04409 10.6261 2.04409 10.4623 2.14509 10.3613L2.71874 9.78767L1.77432 9.89743C1.63243 9.91392 1.50404 9.81226 1.48755 9.67037C1.47106 9.52848 1.57272 9.40009 1.71461 9.3836L3.30799 9.19843L3.64394 8.86248L2.69952 8.97223C2.55763 8.98872 2.42924 8.88706 2.41275 8.74517C2.39626 8.60328 2.49792 8.47489 2.63981 8.4584L4.23318 8.27323L5.82588 6.68053H3.59594L2.32144 7.68964C2.20945 7.77831 2.04678 7.75941 1.95811 7.64742C1.86944 7.53543 1.88834 7.37276 2.00033 7.28409L2.76262 6.68053H2.28749L1.01299 7.68964C0.901002 7.77831 0.738334 7.75941 0.649662 7.64742C0.560991 7.53543 0.579896 7.37276 0.691887 7.28409L1.45417 6.68053H0.626033C0.483188 6.68053 0.36739 6.56473 0.36739 6.42189C0.36739 6.27904 0.483189 6.16324 0.626034 6.16324H1.43728L0.691887 5.57307C0.579896 5.4844 0.560991 5.32173 0.649662 5.20974C0.738334 5.09774 0.901002 5.07884 1.01299 5.16751L2.27059 6.16324H2.74572L2.00033 5.57306C1.88834 5.48439 1.86944 5.32172 1.95811 5.20973C2.04678 5.09774 2.20945 5.07884 2.32144 5.16751L3.57904 6.16324H5.83147L4.25464 4.58641L2.63986 4.39875C2.49797 4.38226 2.39631 4.25387 2.4128 4.11198C2.42929 3.97009 2.55768 3.86844 2.69957 3.88493L3.66539 3.99717L3.32944 3.66121L1.71465 3.47355C1.57276 3.45706 1.47111 3.32867 1.48759 3.18678C1.50408 3.04489 1.63248 2.94323 1.77437 2.95972L2.74019 3.07197L2.1546 2.48638C2.0536 2.38537 2.0536 2.22161 2.1546 2.1206C2.25561 2.0196 2.41937 2.0196 2.52038 2.1206L3.09398 2.6942L2.98423 1.74984C2.96774 1.60795 3.0694 1.47956 3.21129 1.46307C3.35318 1.44658 3.48157 1.54824 3.49806 1.69013L3.68322 3.28345L4.01918 3.6194L3.90943 2.67504C3.89295 2.53315 3.9946 2.40476 4.13649 2.38827C4.27838 2.37178 4.40677 2.47344 4.42326 2.61533L4.60843 4.20865L6.20115 5.80137V3.57138L5.19204 2.29688C5.10337 2.18489 5.12227 2.02222 5.23426 1.93355C5.34625 1.84488 5.50892 1.86378 5.59759 1.97578L6.20115 2.73806V2.26295L5.19204 0.988461C5.10337 0.876471 5.12228 0.713802 5.23427 0.625131C5.34626 0.536459 5.50893 0.555364 5.5976 0.667355L6.20115 1.42963V0.601508C6.20115 0.458663 6.31695 0.342865 6.45979 0.342865Z" fill="url(#paint0_linear_21_389)"/>
</g>
<defs>
<linearGradient id="paint0_linear_21_389" x1="1.95637" y1="1.34701" x2="10.6894" y2="9.86701" gradientUnits="userSpaceOnUse">
<stop stop-color="#D6E9FF"/>
<stop offset="1" stop-color="#2898FF"/>
</linearGradient>
</defs>
</svg>
